<svg width="40" height="40" viewBox="0 0 40 40" fill="none" xmlns="http://www.w3.org/2000/svg">
<path d="M20.0417 35C19.6806 35 19.3819 34.8819 19.1458 34.6458C18.9097 34.4097 18.7917 34.1111 18.7917 33.75V31.5C17.4583 31.2778 16.3194 30.8056 15.375 30.0833C14.4306 29.3611 13.6944 28.4444 13.1667 27.3333C13.0278 27.0278 13.0278 26.7083 13.1667 26.375C13.3056 26.0417 13.5417 25.8056 13.875 25.6667C14.1806 25.5278 14.4931 25.5278 14.8125 25.6667C15.1319 25.8056 15.375 26.0278 15.5417 26.3333C16.0417 27.2778 16.6944 27.9861 17.5 28.4583C18.3056 28.9306 19.2361 29.1667 20.2917 29.1667C21.625 29.1667 22.7222 28.8333 23.5833 28.1667C24.4444 27.5 24.875 26.5833 24.875 25.4167C24.875 24.1944 24.4931 23.25 23.7292 22.5833C22.9653 21.9167 21.5278 21.2361 19.4167 20.5417C17.4167 19.9028 15.9236 19.0556 14.9375 18C13.9514 16.9444 13.4583 15.625 13.4583 14.0417C13.4583 12.5139 13.9514 11.2361 14.9375 10.2083C15.9236 9.18056 17.2083 8.59722 18.7917 8.45833V6.25C18.7917 5.88889 18.9097 5.59028 19.1458 5.35417C19.3819 5.11806 19.6806 5 20.0417 5C20.4028 5 20.7014 5.11806 20.9375 5.35417C21.1736 5.59028 21.2917 5.88889 21.2917 6.25V8.45833C22.2917 8.59722 23.1875 8.90278 23.9792 9.375C24.7708 9.84722 25.4306 10.4583 25.9583 11.2083C26.1528 11.4861 26.1944 11.7847 26.0833 12.1042C25.9722 12.4236 25.75 12.6528 25.4167 12.7917C25.1111 12.9306 24.7917 12.9444 24.4583 12.8333C24.125 12.7222 23.8472 12.5139 23.625 12.2083C23.2361 11.7083 22.7569 11.3403 22.1875 11.1042C21.6181 10.8681 20.9306 10.75 20.125 10.75C18.8472 10.75 17.8333 11.0417 17.0833 11.625C16.3333 12.2083 15.9583 13 15.9583 14C15.9583 15.0556 16.375 15.9097 17.2083 16.5625C18.0417 17.2153 19.5833 17.8889 21.8333 18.5833C23.7222 19.1667 25.1181 20.0069 26.0208 21.1042C26.9236 22.2014 27.375 23.5833 27.375 25.25C27.375 27 26.8611 28.4097 25.8333 29.4792C24.8056 30.5486 23.2917 31.2361 21.2917 31.5417V33.75C21.2917 34.1111 21.1736 34.4097 20.9375 34.6458C20.7014 34.8819 20.4028 35 20.0417 35Z" fill="#C18A02"/>
</svg>
