<svg width="46" height="40" viewBox="0 0 46 40" fill="none" xmlns="http://www.w3.org/2000/svg">
<path d="M13.0589 31.6667C11.5276 31.6667 10.2223 31.1875 9.1429 30.2292C8.06354 29.2708 7.52386 28.125 7.52386 26.7917H5.23814C4.83338 26.7917 4.49409 26.6719 4.22028 26.4323C3.94648 26.1927 3.80957 25.8958 3.80957 25.5417V21.7917C3.80957 19.9861 4.52386 18.4514 5.95243 17.1875C7.381 15.9236 9.12703 15.2917 11.1905 15.2917H15.7143C16.5 15.2917 17.1727 15.5365 17.7322 16.026C18.2917 16.5156 18.5715 17.1042 18.5715 17.7917V24.2917H26.2381L33.2381 16.5833V10.8333H28.8096C28.4048 10.8333 28.0655 10.7129 27.7917 10.4719C27.5179 10.2309 27.381 9.93227 27.381 9.57604C27.381 9.21979 27.5179 8.92361 27.7917 8.6875C28.0655 8.45139 28.4048 8.33334 28.8096 8.33334H33.2381C34.0239 8.33334 34.6965 8.57813 35.256 9.06771C35.8155 9.55729 36.0953 10.1458 36.0953 10.8333V16.5833C36.0953 16.8889 36.0407 17.1671 35.9314 17.4178C35.8222 17.6686 35.6705 17.9043 35.4762 18.125L28.4762 25.8333C28.2201 26.1315 27.8942 26.3657 27.4985 26.5361C27.1027 26.7065 26.6826 26.7917 26.2381 26.7917H18.5715C18.5715 28.125 18.0355 29.2708 16.9636 30.2292C15.8917 31.1875 14.5902 31.6667 13.0589 31.6667ZM13.0477 29.1667C13.7778 29.1667 14.4048 28.9306 14.9286 28.4583C15.4524 27.9861 15.7143 27.4306 15.7143 26.7917H10.381C10.381 27.4306 10.6429 27.9861 11.1667 28.4583C11.6905 28.9306 12.3175 29.1667 13.0477 29.1667ZM17.1429 12.7917H10.9524C10.5477 12.7917 10.2084 12.6712 9.93457 12.4302C9.66076 12.1892 9.52386 11.8906 9.52386 11.5344C9.52386 11.1781 9.66076 10.8819 9.93457 10.6458C10.2084 10.4097 10.5477 10.2917 10.9524 10.2917H17.1429C17.5477 10.2917 17.887 10.4122 18.1608 10.6531C18.4346 10.8941 18.5715 11.1927 18.5715 11.549C18.5715 11.9052 18.4346 12.2014 18.1608 12.4375C17.887 12.6736 17.5477 12.7917 17.1429 12.7917ZM36.3922 31.6667C34.8609 31.6667 33.5556 31.1977 32.4762 30.2598C31.3969 29.3219 30.8572 28.183 30.8572 26.8431C30.8572 25.5033 31.3931 24.3611 32.465 23.4167C33.5369 22.4722 34.8385 22 36.3698 22C37.9011 22 39.2064 22.469 40.2858 23.4069C41.3651 24.3448 41.9048 25.4837 41.9048 26.8235C41.9048 28.1634 41.3689 29.3056 40.297 30.25C39.2251 31.1944 37.9235 31.6667 36.3922 31.6667ZM36.381 29.1667C37.1112 29.1667 37.7381 28.9375 38.262 28.4792C38.7858 28.0208 39.0477 27.4722 39.0477 26.8333C39.0477 26.1944 38.7858 25.6458 38.262 25.1875C37.7381 24.7292 37.1112 24.5 36.381 24.5C35.6508 24.5 35.0239 24.7292 34.5 25.1875C33.9762 25.6458 33.7143 26.1944 33.7143 26.8333C33.7143 27.4722 33.9762 28.0208 34.5 28.4792C35.0239 28.9375 35.6508 29.1667 36.381 29.1667ZM6.66671 24.2917H15.7143V17.7917H11.1905C9.92068 17.7917 8.84925 18.1833 7.97624 18.9667C7.10322 19.75 6.66671 20.6917 6.66671 21.7917V24.2917Z" fill="#C18A02"/>
</svg>
