<svg width="40" height="40" viewBox="0 0 40 40" fill="none" xmlns="http://www.w3.org/2000/svg">
<path d="M18.2917 21.9583L15.0001 18.6667C14.7501 18.4167 14.4445 18.2917 14.0834 18.2917C13.7223 18.2917 13.4167 18.4167 13.1667 18.6667C12.9167 18.9167 12.7917 19.2199 12.7917 19.5764C12.7917 19.9329 12.9167 20.2408 13.1667 20.5L17.2917 24.6667C17.5417 24.9167 17.8334 25.0417 18.1667 25.0417C18.5001 25.0417 18.7917 24.9167 19.0417 24.6667L26.7917 16.9167C27.0417 16.6648 27.1667 16.3657 27.1667 16.0195C27.1667 15.6732 27.0487 15.3889 26.8126 15.1667C26.5765 14.9444 26.2779 14.8403 25.9167 14.8542C25.5556 14.8681 25.264 14.9861 25.0417 15.2083L18.2917 21.9583ZM20.0001 36.5C19.8523 36.5 19.7151 36.4861 19.5884 36.4583C19.4617 36.4306 19.3351 36.3889 19.2084 36.3333C15.3473 35.0278 12.2917 32.6875 10.0417 29.3125C7.79175 25.9375 6.66675 22.2346 6.66675 18.2039V10.0417C6.66675 9.50675 6.81779 9.02534 7.11987 8.59742C7.42196 8.16948 7.81258 7.85922 8.29175 7.66667L19.1251 3.625C19.4306 3.51389 19.7223 3.45834 20.0001 3.45834C20.2779 3.45834 20.5695 3.51389 20.8751 3.625L31.7084 7.66667C32.1876 7.85922 32.5782 8.16948 32.8803 8.59742C33.1824 9.02534 33.3334 9.50675 33.3334 10.0417V18.2039C33.3334 22.2346 32.2084 25.9375 29.9584 29.3125C27.7084 32.6875 24.6529 35.0278 20.7917 36.3333C20.6651 36.3889 20.5384 36.4306 20.4117 36.4583C20.2851 36.4861 20.1479 36.5 20.0001 36.5ZM20.0001 34.0417C23.1945 32.9861 25.7987 30.9931 27.8126 28.0625C29.8265 25.1319 30.8334 21.8472 30.8334 18.2083V10.0417L20.0001 5.95834L9.16675 10.0417V18.2083C9.16675 21.8472 10.1737 25.1319 12.1876 28.0625C14.2015 30.9931 16.8056 32.9861 20.0001 34.0417Z" fill="#C18A02"/>
</svg>
