<svg width="403" height="254" viewBox="0 0 403 254" fill="none" xmlns="http://www.w3.org/2000/svg">
<path d="M201.037 253.07C312.067 253.07 402.074 248.508 402.074 242.879C402.074 237.251 312.067 232.689 201.037 232.689C90.0073 232.689 0 237.251 0 242.879C0 248.508 90.0073 253.07 201.037 253.07Z" fill="#553C00"/>
<path d="M318.669 0H284.908L261.028 236.924H294.789C304.391 236.924 312.885 230.144 313.724 221.81L334.558 15.1137C335.398 6.7797 328.271 0 318.669 0Z" fill="#C18A02"/>
<path d="M311.78 0H197.519C187.917 0 179.423 6.7797 178.584 15.1137L157.75 221.81C156.91 230.144 164.037 236.924 173.639 236.924H287.9C297.502 236.924 305.996 230.144 306.836 221.81L327.669 15.1137C328.509 6.7797 321.382 0 311.78 0Z" fill="#C18A02"/>
<path opacity="0.3" d="M311.78 0H197.519C187.917 0 179.423 6.7797 178.584 15.1137L157.75 221.81C156.91 230.144 164.037 236.924 173.639 236.924H287.9C297.502 236.924 305.996 230.144 306.836 221.81L327.669 15.1137C328.509 6.7797 321.382 0 311.78 0Z" fill="white"/>
<path opacity="0.4" d="M311.292 4.84201H281.167C279.39 4.84201 277.721 5.85451 277.063 7.33231C274.627 12.7953 268.46 16.5366 261.891 16.5366H244.076C237.507 16.5366 232.092 12.7944 230.758 7.33231C230.397 5.85451 228.933 4.8429 227.155 4.8429H197.03C190.495 4.8429 184.734 9.44101 184.162 15.1137L163.328 221.81C162.757 227.483 167.591 232.081 174.126 232.081H288.388C294.923 232.081 300.684 227.483 301.256 221.81L322.09 15.1137C322.661 9.44101 317.827 4.84201 311.292 4.84201Z" fill="white"/>
<path d="M282.828 117.118H202.861C200.489 117.118 198.736 115.449 198.943 113.392L199.344 109.42C199.551 107.362 201.641 105.694 204.013 105.694H283.98C286.351 105.694 288.105 107.363 287.897 109.42L287.497 113.392C287.29 115.449 285.199 117.118 282.828 117.118Z" fill="white"/>
<path d="M281.101 134.254H201.133C198.762 134.254 197.009 132.585 197.216 130.528L197.616 126.556C197.824 124.498 199.914 122.83 202.285 122.83H282.253C284.624 122.83 286.377 124.499 286.17 126.556L285.77 130.528C285.562 132.585 283.472 134.254 281.101 134.254Z" fill="white"/>
<path opacity="0.1" d="M258.531 8.71381C258.301 10.9962 255.984 12.8457 253.354 12.8457C250.725 12.8457 248.781 10.9962 249.011 8.71381C249.241 6.43141 251.558 4.58191 254.188 4.58191C256.816 4.58191 258.761 6.43141 258.531 8.71381Z" fill="black"/>
<path opacity="0.1" d="M256.371 8.71382C256.246 9.96032 254.98 10.971 253.543 10.971C252.107 10.971 251.044 9.96032 251.169 8.71382C251.295 7.46732 252.561 6.45662 253.998 6.45662C255.435 6.45662 256.497 7.46732 256.371 8.71382Z" fill="black"/>
<g opacity="0.8">
<path d="M297.226 15.606C296.456 15.606 295.885 15.0642 295.953 14.3955L296.176 12.1824C296.243 11.5137 296.922 10.9719 297.693 10.9719C298.463 10.9719 299.033 11.5137 298.966 12.1824L298.743 14.3955C298.675 15.0642 297.996 15.606 297.226 15.606Z" fill="white"/>
<path d="M308.385 15.606C307.614 15.606 307.044 15.0642 307.111 14.3955L307.635 9.20161C307.702 8.53291 308.382 7.9911 309.152 7.9911C309.922 7.9911 310.493 8.53291 310.425 9.20161L309.902 14.3955C309.834 15.0642 309.155 15.606 308.385 15.606Z" fill="white"/>
<path d="M302.805 15.606C302.035 15.606 301.465 15.0642 301.532 14.3955L301.905 10.692C301.973 10.0233 302.652 9.48151 303.422 9.48151C304.193 9.48151 304.763 10.0233 304.695 10.692L304.322 14.3955C304.255 15.0642 303.576 15.606 302.805 15.606Z" fill="white"/>
</g>
<g opacity="0.8">
<path d="M201.695 15.606H194.691C194.255 15.606 193.932 15.2991 193.971 14.9202L194.299 11.6559C194.338 11.277 194.722 10.9701 195.158 10.9701H202.162C202.598 10.9701 202.921 11.277 202.882 11.6559L202.554 14.9202C202.515 15.2991 202.132 15.606 201.695 15.606Z" fill="white"/>
<path d="M204.943 14.7204C204.506 14.7204 204.184 14.4135 204.222 14.0346L204.372 12.5415C204.411 12.1626 204.795 11.8557 205.231 11.8557C205.667 11.8557 205.99 12.1626 205.952 12.5415L205.801 14.0346C205.764 14.4135 205.379 14.7204 204.943 14.7204Z" fill="white"/>
</g>
<path d="M269.665 91.0117C283.618 79.4189 285.008 61.0254 272.77 49.9285C260.533 38.8317 239.302 39.2338 225.349 50.8266C211.396 62.4194 210.006 80.813 222.244 91.9098C234.481 103.007 255.712 102.605 269.665 91.0117Z" fill="white"/>
<path d="M247.614 69.7968C238.816 69.7968 231.39 72.702 230.755 79.0155L230.049 86.022H261.91L262.617 79.0155C263.252 72.702 256.413 69.7968 247.614 69.7968Z" fill="#C18A02"/>
<path d="M247.906 66.9114C251.989 66.9114 253.872 64.0386 254.228 60.4944C254.586 56.9502 253.282 54.0774 249.199 54.0774C245.115 54.0774 243.232 56.9502 242.875 60.4944C242.518 64.0386 243.822 66.9114 247.906 66.9114Z" fill="#C18A02"/>
<path d="M279.178 111.201C277.005 111.201 275.171 111.919 275.014 113.478L274.84 115.209H282.71L282.884 113.478C283.041 111.919 281.352 111.201 279.178 111.201Z" fill="#C18A02"/>
<path d="M279.25 110.489C280.259 110.489 280.723 109.778 280.811 108.904C280.9 108.028 280.578 107.319 279.569 107.319C278.56 107.319 278.096 108.029 278.008 108.904C277.92 109.779 278.242 110.489 279.25 110.489Z" fill="#C18A02"/>
<path d="M254.948 151.39H223.832C220.198 151.39 217.51 148.833 217.828 145.678C218.146 142.523 221.35 139.965 224.984 139.965H256.1C259.734 139.965 262.422 142.523 262.104 145.678C261.786 148.833 258.582 151.39 254.948 151.39Z" fill="#C18A02"/>
<path d="M251.194 215.092H217.893C214.053 215.092 211.212 212.389 211.548 209.056L213.672 187.973C214.008 184.64 217.394 181.937 221.234 181.937H254.535C258.376 181.937 261.217 184.64 260.881 187.973L258.756 209.056C258.42 212.389 255.035 215.092 251.194 215.092Z" fill="#C18A02"/>
<g opacity="0.6">
<path d="M240.924 193.298C241.126 191.292 239.417 189.666 237.105 189.666C234.794 189.666 232.757 191.292 232.555 193.298C232.434 194.493 233.001 195.544 233.961 196.205L233.229 203.465C233.108 204.656 234.123 205.622 235.496 205.622C236.869 205.622 238.079 204.656 238.199 203.465L238.931 196.205C240.025 195.544 240.804 194.494 240.924 193.298Z" fill="white"/>
</g>
<path d="M254.831 186.325H250.539L251.591 175.894C252.222 169.626 246.861 164.526 239.64 164.526C232.418 164.526 226.029 169.626 225.397 175.894L224.346 186.325H220.054L221.106 175.894C221.944 167.572 230.427 160.801 240.015 160.801C249.603 160.801 256.721 167.572 255.882 175.894L254.831 186.325Z" fill="#C18A02"/>
<path d="M279.705 127.176L279.806 126.176C279.909 125.152 279.034 124.321 277.855 124.321C276.676 124.321 275.634 125.153 275.532 126.176L275.431 127.176C274.96 127.176 274.545 127.508 274.505 127.916L274.237 130.577C274.195 130.985 274.543 131.316 275.014 131.316H279.286C279.757 131.316 280.172 130.985 280.213 130.577L280.482 127.916C280.523 127.508 280.176 127.176 279.705 127.176ZM277.81 124.778C278.697 124.778 279.356 125.404 279.279 126.175L279.178 127.175H275.959L276.059 126.175C276.137 125.404 276.922 124.778 277.81 124.778Z" fill="#C18A02"/>
<path d="M215.394 128.242L213.903 127.975C213.727 127.943 213.636 127.782 213.71 127.631L214.331 126.356C214.464 126.083 214.081 125.88 213.839 126.097L212.712 127.105C212.578 127.225 212.364 127.225 212.255 127.105L211.331 126.097C211.133 125.881 210.709 126.083 210.787 126.356L211.151 127.631C211.194 127.782 211.071 127.943 210.887 127.975L209.342 128.242C209.01 128.299 208.97 128.704 209.29 128.761L210.781 129.028C210.958 129.06 211.049 129.221 210.975 129.372L210.354 130.647C210.22 130.92 210.604 131.123 210.846 130.906L211.973 129.898C212.107 129.778 212.321 129.778 212.43 129.898L213.354 130.906C213.552 131.123 213.976 130.92 213.898 130.647L213.534 129.372C213.491 129.221 213.614 129.06 213.798 129.028L215.343 128.761C215.674 128.704 215.715 128.299 215.394 128.242Z" fill="#263238"/>
<path d="M225.206 128.242L223.715 127.975C223.539 127.943 223.448 127.782 223.521 127.631L224.143 126.356C224.276 126.083 223.893 125.88 223.651 126.097L222.524 127.105C222.39 127.225 222.177 127.225 222.067 127.105L221.143 126.097C220.945 125.881 220.521 126.083 220.599 126.356L220.963 127.631C221.006 127.782 220.882 127.943 220.699 127.975L219.154 128.242C218.822 128.299 218.782 128.704 219.101 128.761L220.592 129.028C220.769 129.06 220.86 129.221 220.786 129.372L220.165 130.647C220.031 130.92 220.415 131.123 220.657 130.906L221.784 129.898C221.917 129.778 222.131 129.778 222.241 129.898L223.165 130.906C223.363 131.123 223.787 130.92 223.709 130.647L223.345 129.372C223.302 129.221 223.426 129.06 223.609 129.028L225.154 128.761C225.486 128.704 225.527 128.299 225.206 128.242Z" fill="#263238"/>
<path d="M235.018 128.242L233.527 127.975C233.351 127.943 233.26 127.782 233.333 127.631L233.954 126.356C234.088 126.083 233.704 125.88 233.463 126.097L232.336 127.105C232.202 127.225 231.987 127.225 231.879 127.105L230.955 126.097C230.757 125.881 230.333 126.083 230.41 126.356L230.774 127.631C230.818 127.782 230.694 127.943 230.511 127.975L228.966 128.242C228.634 128.299 228.594 128.704 228.913 128.761L230.404 129.028C230.58 129.06 230.672 129.221 230.598 129.372L229.977 130.647C229.843 130.92 230.227 131.123 230.468 130.906L231.595 129.898C231.729 129.778 231.944 129.778 232.053 129.898L232.977 130.906C233.175 131.123 233.599 130.92 233.521 130.647L233.157 129.372C233.113 129.221 233.237 129.06 233.42 129.028L234.965 128.761C235.298 128.704 235.339 128.299 235.018 128.242Z" fill="#263238"/>
<path d="M244.831 128.242L243.34 127.975C243.164 127.943 243.072 127.782 243.146 127.631L243.767 126.356C243.901 126.083 243.517 125.88 243.276 126.097L242.149 127.105C242.015 127.225 241.8 127.225 241.691 127.105L240.767 126.097C240.569 125.881 240.145 126.083 240.223 126.356L240.587 127.631C240.631 127.782 240.507 127.943 240.324 127.975L238.779 128.242C238.447 128.299 238.407 128.704 238.727 128.761L240.218 129.028C240.394 129.06 240.485 129.221 240.412 129.372L239.791 130.647C239.657 130.92 240.041 131.123 240.282 130.906L241.409 129.898C241.543 129.778 241.758 129.778 241.867 129.898L242.79 130.906C242.988 131.123 243.413 130.92 243.335 130.647L242.971 129.372C242.927 129.221 243.051 129.06 243.234 129.028L244.779 128.761C245.11 128.704 245.151 128.299 244.831 128.242Z" fill="#263238"/>
<path d="M254.643 128.242L253.152 127.975C252.976 127.943 252.884 127.782 252.958 127.631L253.579 126.356C253.713 126.083 253.329 125.88 253.088 126.097L251.961 127.105C251.827 127.225 251.612 127.225 251.503 127.105L250.579 126.097C250.381 125.881 249.957 126.083 250.035 126.356L250.399 127.631C250.443 127.782 250.319 127.943 250.136 127.975L248.591 128.242C248.259 128.299 248.218 128.704 248.538 128.761L250.029 129.028C250.205 129.06 250.296 129.221 250.223 129.372L249.602 130.647C249.469 130.92 249.852 131.123 250.093 130.906L251.22 129.898C251.354 129.778 251.568 129.778 251.677 129.898L252.601 130.906C252.799 131.123 253.223 130.92 253.146 130.647L252.782 129.372C252.738 129.221 252.863 129.06 253.045 129.028L254.59 128.761C254.922 128.704 254.963 128.299 254.643 128.242Z" fill="#263238"/>
<path d="M264.455 128.242L262.964 127.975C262.788 127.943 262.696 127.782 262.77 127.631L263.391 126.356C263.524 126.083 263.141 125.88 262.9 126.097L261.773 127.105C261.639 127.225 261.425 127.225 261.315 127.105L260.391 126.097C260.193 125.881 259.769 126.083 259.847 126.356L260.211 127.631C260.255 127.782 260.13 127.943 259.948 127.975L258.403 128.242C258.071 128.299 258.03 128.704 258.35 128.761L259.841 129.028C260.017 129.06 260.108 129.221 260.035 129.372L259.414 130.647C259.28 130.92 259.664 131.123 259.905 130.906L261.032 129.898C261.166 129.778 261.381 129.778 261.49 129.898L262.413 130.906C262.611 131.123 263.035 130.92 262.958 130.647L262.594 129.372C262.55 129.221 262.674 129.06 262.857 129.028L264.402 128.761C264.734 128.704 264.775 128.299 264.455 128.242Z" fill="#263238"/>
<path d="M240.804 109.607H222.381C221.236 109.607 220.227 110.412 220.127 111.406C220.026 112.399 220.873 113.205 222.018 113.205H240.441C241.586 113.205 242.595 112.399 242.695 111.406C242.796 110.412 241.949 109.607 240.804 109.607Z" fill="#263238"/>
<path d="M259.506 109.607H248.816C247.671 109.607 246.662 110.412 246.562 111.406C246.461 112.399 247.308 113.205 248.453 113.205H259.143C260.288 113.205 261.296 112.399 261.397 111.406C261.498 110.412 260.651 109.607 259.506 109.607Z" fill="#263238"/>
<path d="M273.619 191.193C266.673 193.601 260.583 197.113 256.415 201.106C253.971 199.301 250.496 198.047 246.331 197.474L245.843 197.406L245.629 199.529L245.902 199.618C250.013 200.966 253.359 203.359 255.579 206.535L255.928 207.034L256.313 206.499C260.585 200.562 266.815 195.589 273.853 192.495L274.091 192.389L274.233 190.978L273.619 191.193Z" fill="#263238"/>
<path opacity="0.2" d="M185.111 30.1419C183.816 32.1192 182.961 34.3251 182.725 36.6624L167.284 189.861H215.06L224.659 157.918L221.5 125.974L231.099 94.0302L227.94 62.0865L237.539 30.1428H185.111V30.1419Z" fill="black"/>
<path d="M223.792 53.0865L233.39 21.1419H112.571L102.971 53.0865L106.132 85.0302L96.5323 116.974L99.6916 148.919L90.0923 180.862H210.912L220.511 148.919L217.352 116.974L226.95 85.0302L223.792 53.0865Z" fill="#C18A02"/>
<path opacity="0.7" d="M223.792 53.0865L233.39 21.1419H112.571L102.971 53.0865L106.132 85.0302L96.5323 116.974L99.6916 148.919L90.0923 180.862H210.912L220.511 148.919L217.352 116.974L226.95 85.0302L223.792 53.0865Z" fill="white"/>
<path opacity="0.5" d="M223.791 53.0865H102.971L112.571 21.1419H233.39L223.791 53.0865Z" fill="white"/>
<path opacity="0.5" d="M217.352 116.974H96.5322L106.132 85.0302H226.951L217.352 116.974Z" fill="white"/>
<path opacity="0.5" d="M210.912 180.862H90.0923L99.6916 148.919H220.511L210.912 180.862Z" fill="white"/>
<path opacity="0.2" d="M207.624 66.4353C206.586 66.717 205.257 66.8862 203.808 66.8862C201.676 66.8862 199.801 66.5199 198.735 65.9682C198.443 65.8161 198.121 65.7405 197.8 65.7405C197.501 65.7405 197.204 65.8134 196.928 65.9439C196.907 65.9538 196.884 65.9574 196.865 65.9682C196.853 65.9745 196.839 65.979 196.827 65.9853C196.432 66.1851 195.935 66.3606 195.354 66.5019C194.357 66.744 193.126 66.8871 191.792 66.8871C191.43 66.8871 191.075 66.8763 190.73 66.8565C189.697 66.7953 188.754 66.6477 187.977 66.4371C187.841 66.4002 187.704 66.3786 187.57 66.3705C186.63 66.3165 185.785 66.9429 185.785 67.8087V68.7843H138.824C135.19 68.7843 132.243 71.3412 132.243 74.4966V80.253C132.243 83.4075 135.19 85.9653 138.824 85.9653H192.251C192.369 85.9653 192.483 85.9554 192.6 85.95C193.176 86.364 193.777 86.7771 194.412 87.1956C195.173 87.696 195.975 88.2036 196.815 88.7328C197.4 89.1009 198.202 89.1009 198.787 88.7328C205.505 84.5037 209.818 81.5868 209.818 73.5723V67.8096C209.817 66.8187 208.713 66.1401 207.624 66.4353Z" fill="black"/>
<path d="M191.229 82.7928H137.803C134.168 82.7928 131.222 80.2359 131.222 77.0805V71.3241C131.222 68.1696 134.167 65.6118 137.803 65.6118H191.229C194.864 65.6118 197.81 68.1687 197.81 71.3241V77.0805C197.81 80.235 194.864 82.7928 191.229 82.7928Z" fill="#C18A02"/>
<path d="M202.788 63.7146C200.656 63.7146 198.782 63.3483 197.715 62.7966C197.129 62.4933 196.43 62.4933 195.844 62.7966C194.779 63.3483 192.905 63.7146 190.771 63.7146C189.322 63.7146 187.993 63.5454 186.955 63.2646C185.868 62.9694 184.762 63.6471 184.762 64.6371V70.3998C184.762 78.4143 189.076 81.3312 195.794 85.5603C196.378 85.9284 197.181 85.9284 197.766 85.5603C204.484 81.3312 208.797 78.4143 208.797 70.3998V64.6371C208.797 63.6471 207.693 62.9694 206.604 63.2646C205.566 63.5454 204.238 63.7146 202.788 63.7146Z" fill="#C18A02"/>
<path opacity="0.3" d="M202.788 63.7146C200.656 63.7146 198.782 63.3483 197.715 62.7966C197.129 62.4933 196.43 62.4933 195.844 62.7966C194.779 63.3483 192.905 63.7146 190.771 63.7146C189.322 63.7146 187.993 63.5454 186.955 63.2646C185.868 62.9694 184.762 63.6471 184.762 64.6371V70.3998C184.762 78.4143 189.076 81.3312 195.794 85.5603C196.378 85.9284 197.181 85.9284 197.766 85.5603C204.484 81.3312 208.797 78.4143 208.797 70.3998V64.6371C208.797 63.6471 207.693 62.9694 206.604 63.2646C205.566 63.5454 204.238 63.7146 202.788 63.7146Z" fill="white"/>
<path opacity="0.2" d="M195.844 62.7966C194.779 63.3483 192.905 63.7146 190.771 63.7146C189.322 63.7146 187.993 63.5454 186.955 63.2646C185.868 62.9694 184.762 63.6471 184.762 64.6362V70.3998C184.762 78.4143 189.076 81.3312 195.794 85.5603C196.086 85.7439 196.432 85.8366 196.78 85.8366V62.5689C196.458 62.5689 196.137 62.6445 195.844 62.7966Z" fill="white"/>
<path d="M206.409 68.8266C202.068 70.3854 198.353 72.6597 195.915 75.2463C194.214 74.0772 191.883 73.2654 189.147 72.8937L188.827 72.8505V74.2257L189.009 74.2833C191.76 75.1563 194.083 76.7061 195.728 78.7626L195.986 79.0857L196.201 78.7392C198.581 74.8944 202.291 71.6733 206.646 69.6699L206.795 69.6015V68.688L206.409 68.8266Z" fill="#263238"/>
<path d="M231.257 30.1248H226.673C224.131 30.1248 222.251 28.3365 222.473 26.1297L222.874 22.1508C223.097 19.944 225.338 18.1557 227.88 18.1557H232.464C235.007 18.1557 236.887 19.9449 236.665 22.1508L236.263 26.1297C236.041 28.3365 233.8 30.1248 231.257 30.1248Z" fill="#C18A02"/>
<path d="M233.162 22.1427L232.168 21.1959L229.664 23.1939L227.563 21.1959L226.377 22.1427L228.478 24.1407L225.975 26.1387L226.97 27.0855L229.473 25.0875L231.574 27.0855L232.76 26.1387L230.659 24.1407L233.162 22.1427Z" fill="white"/>
<path d="M124.694 48.3003C127.352 50.8086 129.891 53.4069 132.398 56.0295C134.909 58.6494 137.357 61.3161 139.775 64.0062C139.88 64.1232 139.838 64.0755 139.863 64.1106C139.874 64.1259 139.876 64.1511 139.891 64.1637C139.918 64.1898 139.932 64.233 139.964 64.2564C140.012 64.323 140.081 64.3707 140.151 64.4337C140.298 64.548 140.499 64.6353 140.723 64.6713C140.834 64.6857 140.951 64.7001 141.071 64.6893C141.135 64.6965 141.192 64.6794 141.259 64.6776C141.295 64.6785 141.321 64.6623 141.355 64.6587C141.408 64.6389 141.374 64.6794 141.518 64.6056L144.115 63.3834C147.599 61.7823 151.111 60.2172 154.743 58.8123L157.779 62.0757C154.853 64.413 151.805 67.3362 148.73 69.4782L146.407 71.0631C146.348 71.1099 146.098 71.2521 145.942 71.343C145.762 71.4429 145.587 71.5509 145.398 71.6391C145.021 71.8191 144.642 71.9991 144.238 72.1377C143.442 72.4365 142.592 72.6264 141.73 72.7416C140.002 72.9648 138.206 72.8136 136.529 72.2925C135.693 72.0315 134.884 71.6832 134.146 71.2386C133.769 71.0262 133.424 70.7769 133.08 70.5258C132.906 70.4007 132.752 70.2612 132.59 70.1253L132.177 69.7626C129.434 67.32 126.72 64.854 124.068 62.3412C121.414 59.8302 118.79 57.2967 116.285 54.6723L124.694 48.3003Z" fill="#C41200"/>
<path d="M153.331 60.7995L155.747 54.0612L162.11 56.8134C162.11 56.8134 161.183 61.7301 156.551 62.5824L153.331 60.7995Z" fill="#C41200"/>
<path d="M158.3 52.1919L164.038 53.5635L162.111 56.8125L155.749 54.0603L158.3 52.1919Z" fill="#C41200"/>
<path d="M91.2265 50.1363C90.5339 52.9992 89.6878 55.8297 88.8013 58.6521C87.9189 61.4754 86.9557 64.2816 85.9541 67.0797L85.5808 68.1291L85.3941 68.6538C85.3547 68.7681 85.3288 68.7969 85.2936 68.8734C85.1795 69.1389 85.1111 69.4269 85.0976 69.7293C85.08 70.3287 85.2438 70.9956 85.6959 71.5752C85.7332 71.6688 86.0909 71.9946 86.3698 72.2574L87.2304 73.0692L88.9278 74.7189C90.0455 75.8322 91.1591 76.9491 92.2167 78.1236L88.6032 81.7542C87.1112 81.0171 85.6762 80.2224 84.2443 79.4241L82.1177 78.2064L81.0663 77.5845C80.7085 77.3685 80.4213 77.2236 79.849 76.8123C77.8769 75.3606 76.4035 73.2996 75.8633 71.0109C75.5875 69.8688 75.5201 68.6781 75.6735 67.4991C75.714 67.2165 75.7751 66.8871 75.8249 66.645L75.9348 66.1041L76.1546 65.0223C76.7363 62.136 77.3564 59.2578 78.0562 56.3958C78.753 53.5338 79.4902 50.6799 80.3799 47.8584L91.2265 50.1363Z" fill="#C41200"/>
<path d="M88.6665 77.8671L92.9446 75.9681L94.8317 82.2798C94.8317 82.2798 91.3987 83.4219 88.7412 81.9549L88.6665 77.8671Z" fill="#C41200"/>
<path d="M98.8558 73.9494L99.0497 79.7391L94.2729 82.4508L92.616 76.0905L98.8558 73.9494Z" fill="#C41200"/>
<path d="M112.843 20.3778C112.948 20.8242 113.304 21.1374 113.64 21.078C113.976 21.0186 114.164 20.6091 114.059 20.1627C113.955 19.7163 113.598 19.4031 113.262 19.4625C112.927 19.5219 112.739 19.9314 112.843 20.3778Z" fill="#263238"/>
<path d="M113.258 21.1455C113.258 21.1455 115.029 23.5125 116.606 24.5268C115.869 25.4241 114.245 25.3602 114.245 25.3602L113.258 21.1455Z" fill="#A02724"/>
<path d="M110.381 18.2322C110.307 18.2322 110.231 18.2088 110.172 18.1611C110.048 18.0612 110.039 17.892 110.155 17.7831C111.312 16.6968 112.714 16.8903 112.776 16.8984C112.944 16.9236 113.056 17.0613 113.028 17.2071C112.998 17.352 112.838 17.4492 112.674 17.4258C112.627 17.4195 111.53 17.28 110.609 18.1458C110.547 18.2034 110.464 18.2322 110.381 18.2322Z" fill="#263238"/>
<path d="M97.8904 26.6517C99.0341 30.78 100.176 38.3445 96.0935 41.0985C96.0935 41.0985 97.6882 45.2862 108.531 45.2862C120.453 45.2862 114.228 42.5889 114.228 42.5889C107.722 41.49 107.889 36.5841 109.022 33.3765L97.8904 26.6517Z" fill="#C41200"/>
<path d="M94.8233 41.8644C94.113 40.7169 93.3302 39.4047 94.9487 38.9934C96.729 38.5407 108.167 37.7019 111.526 38.5515C110.493 40.1454 112.242 42.1047 112.242 42.1047L94.8233 41.8644Z" fill="#263238"/>
<path d="M104.293 234.983H111.774L112.518 221.914H105.038L104.293 234.983Z" fill="#C41200"/>
<path d="M56.8223 233.183L64.3986 233.53L69.0034 220.656L61.4259 220.307L56.8223 233.183Z" fill="#C41200"/>
<path d="M64.1673 233.01L57.0285 231.668C56.7693 231.619 56.5049 231.734 56.3939 231.943L53.9158 236.61C53.6587 237.094 53.9988 237.662 54.6012 237.766C57.1021 238.197 58.3453 238.297 61.4839 238.887C63.4156 239.25 67.7746 240.172 70.4424 240.674C73.0512 241.164 74.029 238.951 72.989 238.539C68.3252 236.689 66.3769 235.06 65.114 233.543C64.8869 233.27 64.5479 233.082 64.1673 233.01Z" fill="#263238"/>
<path d="M111.378 234.329H104.279C104.013 234.329 103.783 234.49 103.725 234.715L102.44 239.73C102.307 240.251 102.762 240.743 103.375 240.734C105.936 240.696 109.637 240.566 112.857 240.566C116.62 240.566 119.871 240.744 124.285 240.744C126.954 240.744 127.694 238.402 126.577 238.19C121.492 237.224 117.339 237.12 112.944 234.769C112.467 234.513 111.939 234.329 111.378 234.329Z" fill="#263238"/>
<path d="M82.549 43.0065C76.9032 45.3366 75.3687 59.4621 75.3687 59.4621L89.3352 65.0637C89.3352 65.0637 92.8015 60.6312 93.0669 53.6616C93.3448 46.3599 88.3212 40.6242 82.549 43.0065Z" fill="#263238"/>
<path opacity="0.4" d="M90.1251 51.7176C87.6035 55.1151 87.842 60.372 88.715 64.8144L89.3319 65.0655C89.3319 65.0655 92.8023 60.6276 93.0688 53.6598C93.0844 53.2242 93.0823 52.7913 93.0647 52.3701L90.1251 51.7176Z" fill="black"/>
<path d="M121.523 42.6654C121.523 42.6654 128.443 49.4496 121.907 91.4409C111.43 91.4409 92.2322 91.4409 87.1339 91.4409C86.8944 86.8077 90.2487 64.206 85.0996 42.3747C85.0996 42.3747 91.0606 41.3361 96.7405 41.0985C101.183 40.9131 107.616 40.7898 111.522 41.0985C116.672 41.5071 121.523 42.6654 121.523 42.6654Z" fill="#C18A02"/>
<path opacity="0.6" d="M121.523 42.6654C121.523 42.6654 128.443 49.4496 121.907 91.4409C111.43 91.4409 92.2322 91.4409 87.1339 91.4409C86.8944 86.8077 90.2487 64.206 85.0996 42.3747C85.0996 42.3747 91.0606 41.3361 96.7405 41.0985C101.183 40.9131 107.616 40.7898 111.522 41.0985C116.672 41.5071 121.523 42.6654 121.523 42.6654Z" fill="#FAFAFA"/>
<path opacity="0.2" d="M124.562 55.4994L124.429 55.3995L117.513 52.1919C116.81 61.4349 121.57 67.2291 124.402 69.7635C124.792 63.8415 124.783 59.1705 124.562 55.4994Z" fill="black"/>
<path opacity="0.2" d="M112.517 221.918L112.135 228.654H104.651L105.033 221.918H112.517Z" fill="black"/>
<path opacity="0.2" d="M61.4237 220.311L69.0032 220.659L66.6256 227.295L59.0461 226.948L61.4237 220.311Z" fill="black"/>
<path d="M95.4828 22.4559C97.1532 27.8658 97.8136 31.1058 101.66 33.3549C107.445 36.738 114.648 32.8554 114.873 27.1215C115.076 21.9609 112.31 13.9815 105.622 12.8907C99.033 11.817 93.8124 17.046 95.4828 22.4559Z" fill="#C41200"/>
<path d="M109.572 91.4409C109.572 91.4409 102.193 134.566 98.1433 150.723C93.7076 168.415 69.9239 226.951 69.9239 226.951L58.2861 224.764C58.2861 224.764 73.2004 177.062 76.9228 152.327C78.3754 142.674 80.1288 127.115 82.3477 114.143C84.496 101.579 87.1338 91.4409 87.1338 91.4409H109.572Z" fill="#263238"/>
<path d="M72.7102 223.578C72.76 223.587 70.5411 227.231 70.5411 227.231L57.4475 224.771L58.5518 221.354L72.7102 223.578Z" fill="#C18A02"/>
<path opacity="0.6" d="M72.7102 223.578C72.76 223.587 70.5411 227.231 70.5411 227.231L57.4475 224.771L58.5518 221.354L72.7102 223.578Z" fill="white"/>
<path opacity="0.6" d="M104.909 106.806C96.3776 108.257 97.2807 135.872 98.3072 150.076C100.768 140.036 104.369 120.717 106.829 107.005C106.263 106.76 105.625 106.683 104.909 106.806Z" fill="black"/>
<path d="M121.907 91.4409C121.907 91.4409 125.378 133.633 124.67 150.842C123.935 168.741 114.158 227.35 114.158 227.35H103.144C103.144 227.35 102.74 169.787 102.25 152.208C101.716 133.043 99.0505 91.4409 99.0505 91.4409H121.907Z" fill="#263238"/>
<path d="M116.276 223.542C116.327 223.542 115.655 227.511 115.655 227.511H102.258L101.896 223.969L116.276 223.542Z" fill="#C18A02"/>
<path opacity="0.6" d="M116.276 223.542C116.327 223.542 115.655 227.511 115.655 227.511H102.258L101.896 223.969L116.276 223.542Z" fill="white"/>
<path d="M117.464 50.5692C117.464 61.8921 124.406 66.5541 124.406 66.5541L135.689 56.9799C135.689 56.9799 131.853 51.2424 126.577 45.9756C120.059 39.4686 117.464 43.2882 117.464 50.5692Z" fill="#263238"/>
<path opacity="0.2" d="M114.478 29.1708C114.192 29.8647 113.44 31.041 111.552 31.5099C108.798 32.1939 108.762 34.2198 108.762 34.2198L108.796 34.2576C111.424 33.5043 113.611 31.6197 114.478 29.1708Z" fill="black"/>
<path d="M111.553 11.7036C113.878 9.15929 110.302 9.0378 110.302 9.0378C111.231 6.0003 107.048 7.6356 107.048 7.6356C104.537 4.6314 103.12 8.2872 103.12 8.2872C100.516 5.742 100.037 9.90179 100.037 9.90179C97.4248 6.67349 96.0945 11.3301 96.0945 11.3301C93.689 7.97759 92.2166 12.3453 92.2166 12.3453C87.2501 10.8018 89.611 15.282 89.611 15.282C85.3713 15.3855 88.7722 18.2322 88.7722 18.2322C83.6936 18.243 88.1718 20.7675 88.1718 20.7675C84.1384 23.0643 89.2015 23.6826 89.2015 23.6826C85.9104 28.1493 91.5614 26.4924 91.5614 26.4924C89.272 30.9132 94.3484 28.9656 94.3484 28.9656C94.0187 33.2316 96.8577 32.0706 98.2222 31.2804C98.4855 32.1399 98.977 33.0498 99.8895 33.1533C101.66 33.354 102.005 30.4524 102.005 30.4524C102.005 30.4524 103.648 31.5621 105.026 30.9609C106.404 30.3597 105.885 28.8378 105.885 28.8378C105.885 28.8378 106.939 29.5209 107.905 28.8693C108.496 28.4706 108.5 25.6059 107.746 24.5988L110.445 23.6817C110.445 23.6817 112.448 23.4369 111.553 21.1446C110.659 18.8532 111.417 17.0433 111.417 17.0433C114.464 15.804 111.965 14.3136 111.965 14.3136C115.487 12.3327 111.553 11.7036 111.553 11.7036Z" fill="#263238"/>
<path d="M106.086 22.6827C106.51 24.1029 107.585 25.3233 108.709 26.0496C110.401 27.1422 111.664 26.0667 111.544 24.4053C111.436 22.9095 110.425 20.5389 108.559 20.0952C106.721 19.6578 105.602 21.0591 106.086 22.6827Z" fill="#C41200"/>
</svg>
