<svg width="304" height="40" viewBox="0 0 304 40" fill="none" xmlns="http://www.w3.org/2000/svg">
<path d="M3.248 5.952L0.548 5.484V3.252H5.804C6.596 3.252 7.664 3.204 9.008 3.108C9.32 3.084 9.788 3.06 10.412 3.036C11.06 3.012 11.636 3 12.14 3C16.556 3 19.856 4.104 22.04 6.312C24.248 8.52 25.352 11.652 25.352 15.708C25.352 18.54 24.8 21.06 23.696 23.268C22.616 25.476 21.068 27.204 19.052 28.452C17.036 29.676 14.684 30.288 11.996 30.288C11.3 30.288 10.208 30.24 8.72 30.144C7.328 30.048 6.38 30 5.876 30H0.404V27.84L3.248 27.48V5.952ZM8.468 27.588C9.284 27.804 10.424 27.912 11.888 27.912C14.288 27.864 16.172 26.904 17.54 25.032C18.908 23.136 19.592 20.304 19.592 16.536C19.592 12.96 18.92 10.2 17.576 8.256C16.232 6.288 14.144 5.304 11.312 5.304C10.712 5.304 10.136 5.34 9.584 5.412C9.056 5.484 8.684 5.532 8.468 5.556V27.588ZM28.0067 27.876L30.3827 27.588V13.404L28.0787 12.756V10.272L33.6587 9.516H33.7667L34.6667 10.236V11.028L34.5587 13.944H34.6667C34.8347 13.464 35.2307 12.876 35.8547 12.18C36.4787 11.46 37.2587 10.836 38.1947 10.308C39.1547 9.756 40.1867 9.48 41.2907 9.48C41.8187 9.48 42.2747 9.552 42.6587 9.696V15.096C41.9387 14.592 41.0627 14.34 40.0307 14.34C38.2787 14.34 36.7547 14.808 35.4587 15.744V27.552L39.6347 27.876V30H28.0067V27.876ZM44.952 20.028C44.952 17.772 45.396 15.852 46.284 14.268C47.196 12.684 48.408 11.496 49.92 10.704C51.432 9.888 53.076 9.48 54.852 9.48C57.876 9.48 60.204 10.416 61.836 12.288C63.492 14.136 64.32 16.656 64.32 19.848C64.32 22.128 63.864 24.072 62.952 25.68C62.064 27.264 60.864 28.452 59.352 29.244C57.864 30.012 56.22 30.396 54.42 30.396C51.42 30.396 49.092 29.472 47.436 27.624C45.78 25.752 44.952 23.22 44.952 20.028ZM54.708 28.056C57.42 28.056 58.776 25.44 58.776 20.208C58.776 17.472 58.452 15.396 57.804 13.98C57.156 12.54 56.1 11.82 54.636 11.82C51.852 11.82 50.46 14.436 50.46 19.668C50.46 22.404 50.796 24.492 51.468 25.932C52.164 27.348 53.244 28.056 54.708 28.056ZM76.3047 39.72C73.0887 39.72 70.7607 39.216 69.3207 38.208C67.8807 37.2 67.1607 35.832 67.1607 34.104C67.1607 33.12 67.4847 32.184 68.1327 31.296C68.8047 30.432 69.6087 29.784 70.5447 29.352C69.4407 28.704 68.8887 27.672 68.8887 26.256C68.8887 25.44 69.1527 24.672 69.6807 23.952C70.2087 23.208 70.8927 22.632 71.7327 22.224C70.4127 21.72 69.4287 20.952 68.7807 19.92C68.1327 18.888 67.8087 17.664 67.8087 16.248C67.8087 14.88 68.2047 13.692 68.9967 12.684C69.8127 11.652 70.8927 10.86 72.2367 10.308C73.6047 9.756 75.0807 9.48 76.6647 9.48C79.4727 9.48 81.5607 10.02 82.9287 11.1C83.2407 10.692 83.7687 10.308 84.5127 9.948C85.2567 9.588 86.0247 9.408 86.8167 9.408H88.0767V13.332H84.3687C84.7287 14.1 84.9087 14.916 84.9087 15.78C84.9327 17.964 84.1647 19.716 82.6047 21.036C81.0447 22.332 78.9087 22.98 76.1967 22.98C75.0687 22.98 74.1207 22.896 73.3527 22.728C73.1127 23.04 72.9207 23.376 72.7767 23.736C72.6567 24.072 72.5967 24.372 72.5967 24.636C72.5967 25.428 72.8727 25.968 73.4247 26.256C74.0007 26.544 75.0207 26.688 76.4847 26.688H80.3367C85.2327 26.688 87.6807 28.464 87.6807 32.016C87.6807 33.504 87.1527 34.836 86.0967 36.012C85.0407 37.188 83.6367 38.1 81.8847 38.748C80.1327 39.396 78.2727 39.72 76.3047 39.72ZM76.5567 20.748C78.7887 20.748 79.9047 19.224 79.9047 16.176C79.9047 14.616 79.6167 13.476 79.0407 12.756C78.4887 12.012 77.6367 11.64 76.4847 11.64C75.3567 11.64 74.4807 12.012 73.8567 12.756C73.2567 13.476 72.9567 14.568 72.9567 16.032C72.9567 19.176 74.1567 20.748 76.5567 20.748ZM76.8447 37.236C78.3567 37.236 79.6647 36.864 80.7687 36.12C81.8727 35.4 82.4247 34.392 82.4247 33.096C82.4247 32.064 82.1487 31.32 81.5967 30.864C81.0687 30.408 80.1087 30.18 78.7167 30.18H74.7927C74.1927 30.18 73.6407 30.144 73.1367 30.072C72.4887 30.936 72.1647 31.968 72.1647 33.168C72.1647 34.488 72.5247 35.496 73.2447 36.192C73.9647 36.888 75.1647 37.236 76.8447 37.236ZM89.5912 24.384C89.5912 22.2 90.6832 20.556 92.8672 19.452C95.0752 18.348 97.9192 17.784 101.399 17.76V16.932C101.399 15.948 101.291 15.18 101.075 14.628C100.883 14.076 100.511 13.668 99.9592 13.404C99.4312 13.116 98.6512 12.972 97.6192 12.972C96.4432 12.972 95.3872 13.128 94.4512 13.44C93.5152 13.728 92.5432 14.112 91.5352 14.592L90.4192 12.288C90.7792 11.976 91.3792 11.604 92.2192 11.172C93.0832 10.74 94.1032 10.368 95.2792 10.056C96.4552 9.72 97.6672 9.552 98.9152 9.552C100.763 9.552 102.203 9.792 103.235 10.272C104.291 10.752 105.047 11.52 105.503 12.576C105.959 13.632 106.187 15.048 106.187 16.824V27.84H108.131V29.856C107.651 29.976 106.967 30.096 106.079 30.216C105.191 30.336 104.411 30.396 103.739 30.396C102.923 30.396 102.371 30.276 102.083 30.036C101.819 29.796 101.687 29.304 101.687 28.56V27.588C101.039 28.308 100.199 28.956 99.1672 29.532C98.1352 30.108 96.9712 30.396 95.6752 30.396C94.5712 30.396 93.5512 30.168 92.6152 29.712C91.7032 29.232 90.9712 28.548 90.4192 27.66C89.8672 26.748 89.5912 25.656 89.5912 24.384ZM97.9792 27.408C98.4832 27.408 99.0592 27.264 99.7072 26.976C100.355 26.664 100.919 26.292 101.399 25.86V19.956C99.2392 19.956 97.6192 20.328 96.5392 21.072C95.4832 21.792 94.9552 22.728 94.9552 23.88C94.9552 25.032 95.2192 25.908 95.7472 26.508C96.2992 27.108 97.0432 27.408 97.9792 27.408ZM110.378 27.876L112.754 27.588V13.404L110.45 12.756V10.272L116.03 9.516H116.138L117.038 10.236V11.028L116.93 13.944H117.038C117.206 13.464 117.602 12.876 118.226 12.18C118.85 11.46 119.63 10.836 120.566 10.308C121.526 9.756 122.558 9.48 123.662 9.48C124.19 9.48 124.646 9.552 125.03 9.696V15.096C124.31 14.592 123.434 14.34 122.402 14.34C120.65 14.34 119.126 14.808 117.83 15.744V27.552L122.006 27.876V30H110.378V27.876ZM131.607 6.708C130.743 6.708 130.059 6.456 129.555 5.952C129.051 5.448 128.799 4.8 128.799 4.008C128.799 3.096 129.087 2.34 129.663 1.74C130.239 1.14 131.007 0.839998 131.967 0.839998C132.927 0.839998 133.659 1.104 134.163 1.632C134.667 2.136 134.919 2.772 134.919 3.54C134.919 4.5 134.631 5.268 134.055 5.844C133.479 6.42 132.675 6.708 131.643 6.708H131.607ZM129.699 13.404L127.143 12.72V10.308L133.731 9.516H133.803L134.811 10.236V27.552L137.223 27.84V30H127.179V27.84L129.699 27.516V13.404ZM139.408 24.384C139.408 22.2 140.5 20.556 142.684 19.452C144.892 18.348 147.736 17.784 151.216 17.76V16.932C151.216 15.948 151.108 15.18 150.892 14.628C150.7 14.076 150.328 13.668 149.776 13.404C149.248 13.116 148.468 12.972 147.436 12.972C146.26 12.972 145.204 13.128 144.268 13.44C143.332 13.728 142.36 14.112 141.352 14.592L140.236 12.288C140.596 11.976 141.196 11.604 142.036 11.172C142.9 10.74 143.92 10.368 145.096 10.056C146.272 9.72 147.484 9.552 148.732 9.552C150.58 9.552 152.02 9.792 153.052 10.272C154.108 10.752 154.864 11.52 155.32 12.576C155.776 13.632 156.004 15.048 156.004 16.824V27.84H157.948V29.856C157.468 29.976 156.784 30.096 155.896 30.216C155.008 30.336 154.228 30.396 153.556 30.396C152.74 30.396 152.188 30.276 151.9 30.036C151.636 29.796 151.504 29.304 151.504 28.56V27.588C150.856 28.308 150.016 28.956 148.984 29.532C147.952 30.108 146.788 30.396 145.492 30.396C144.388 30.396 143.368 30.168 142.432 29.712C141.52 29.232 140.788 28.548 140.236 27.66C139.684 26.748 139.408 25.656 139.408 24.384ZM147.796 27.408C148.3 27.408 148.876 27.264 149.524 26.976C150.172 26.664 150.736 26.292 151.216 25.86V19.956C149.056 19.956 147.436 20.328 146.356 21.072C145.3 21.792 144.772 22.728 144.772 23.88C144.772 25.032 145.036 25.908 145.564 26.508C146.116 27.108 146.86 27.408 147.796 27.408ZM177.269 5.628L172.121 5.808L170.717 13.656H167.693L168.305 3.252H191.525L191.957 13.656H189.113L187.709 5.808L182.633 5.628V27.48L187.673 27.84V30H172.661V27.84L177.269 27.48V5.628ZM210.602 30.36C209.81 30.36 209.234 30.192 208.874 29.856C208.514 29.52 208.334 29.016 208.334 28.344V27.372C207.686 28.164 206.774 28.872 205.598 29.496C204.422 30.096 203.246 30.396 202.07 30.396C199.766 30.396 198.122 29.808 197.138 28.632C196.154 27.432 195.662 25.464 195.662 22.728V12.576L193.862 12.072V10.02L199.982 9.552H200.018L200.738 10.056V22.728C200.738 24.48 200.954 25.704 201.386 26.4C201.818 27.096 202.622 27.444 203.798 27.444C205.214 27.444 206.534 26.892 207.758 25.788V12.576L205.346 12.036V10.02L211.862 9.552H211.934L212.798 10.056V27.768H214.814L214.778 29.82C214.682 29.844 214.238 29.94 213.446 30.108C212.654 30.276 211.706 30.36 210.602 30.36ZM237.266 19.344C237.266 21.36 236.846 23.208 236.006 24.888C235.19 26.568 233.978 27.912 232.37 28.92C230.786 29.904 228.89 30.396 226.682 30.396C226.202 30.396 225.698 30.348 225.17 30.252C224.666 30.18 224.258 30.084 223.946 29.964L224.054 32.952V36.228L227.402 36.66V38.712H216.71V36.66L219.05 36.228V13.404L216.71 12.756V10.272L222.65 9.516H222.722L223.622 10.236V12.252C224.222 11.508 225.038 10.86 226.07 10.308C227.102 9.756 228.23 9.48 229.454 9.48C231.734 9.48 233.606 10.296 235.07 11.928C236.534 13.536 237.266 16.008 237.266 19.344ZM227.582 12.468C226.862 12.468 226.178 12.624 225.53 12.936C224.882 13.248 224.39 13.596 224.054 13.98V27.336C224.222 27.576 224.558 27.78 225.062 27.948C225.59 28.116 226.166 28.2 226.79 28.2C228.35 28.2 229.586 27.528 230.498 26.184C231.434 24.816 231.902 22.68 231.902 19.776C231.902 17.328 231.506 15.504 230.714 14.304C229.922 13.08 228.878 12.468 227.582 12.468ZM239.814 24.384C239.814 22.2 240.906 20.556 243.09 19.452C245.298 18.348 248.142 17.784 251.622 17.76V16.932C251.622 15.948 251.514 15.18 251.298 14.628C251.106 14.076 250.734 13.668 250.182 13.404C249.654 13.116 248.874 12.972 247.842 12.972C246.666 12.972 245.61 13.128 244.674 13.44C243.738 13.728 242.766 14.112 241.758 14.592L240.642 12.288C241.002 11.976 241.602 11.604 242.442 11.172C243.306 10.74 244.326 10.368 245.502 10.056C246.678 9.72 247.89 9.552 249.138 9.552C250.986 9.552 252.426 9.792 253.458 10.272C254.514 10.752 255.27 11.52 255.726 12.576C256.182 13.632 256.41 15.048 256.41 16.824V27.84H258.354V29.856C257.874 29.976 257.19 30.096 256.302 30.216C255.414 30.336 254.634 30.396 253.962 30.396C253.146 30.396 252.594 30.276 252.306 30.036C252.042 29.796 251.91 29.304 251.91 28.56V27.588C251.262 28.308 250.422 28.956 249.39 29.532C248.358 30.108 247.194 30.396 245.898 30.396C244.794 30.396 243.774 30.168 242.838 29.712C241.926 29.232 241.194 28.548 240.642 27.66C240.09 26.748 239.814 25.656 239.814 24.384ZM248.202 27.408C248.706 27.408 249.282 27.264 249.93 26.976C250.578 26.664 251.142 26.292 251.622 25.86V19.956C249.462 19.956 247.842 20.328 246.762 21.072C245.706 21.792 245.178 22.728 245.178 23.88C245.178 25.032 245.442 25.908 245.97 26.508C246.522 27.108 247.266 27.408 248.202 27.408ZM262.616 13.404L260.312 12.756V10.272L266.288 9.516H266.396L267.296 10.236V11.64L267.26 12.504C268.1 11.712 269.192 11.028 270.536 10.452C271.88 9.876 273.236 9.588 274.604 9.588C276.068 9.588 277.208 9.864 278.024 10.416C278.864 10.944 279.464 11.784 279.824 12.936C280.184 14.088 280.364 15.648 280.364 17.616V27.552L282.56 27.84V30H273.272V27.84L275.216 27.552V17.616C275.216 16.368 275.132 15.396 274.964 14.7C274.796 13.98 274.484 13.464 274.028 13.152C273.596 12.816 272.972 12.648 272.156 12.648C270.788 12.648 269.324 13.236 267.764 14.412V27.516L269.924 27.84V30H260.528V27.84L262.616 27.516V13.404ZM284.708 24.384C284.708 22.2 285.8 20.556 287.984 19.452C290.192 18.348 293.036 17.784 296.516 17.76V16.932C296.516 15.948 296.408 15.18 296.192 14.628C296 14.076 295.628 13.668 295.076 13.404C294.548 13.116 293.768 12.972 292.736 12.972C291.56 12.972 290.504 13.128 289.568 13.44C288.632 13.728 287.66 14.112 286.652 14.592L285.536 12.288C285.896 11.976 286.496 11.604 287.336 11.172C288.2 10.74 289.22 10.368 290.396 10.056C291.572 9.72 292.784 9.552 294.032 9.552C295.88 9.552 297.32 9.792 298.352 10.272C299.408 10.752 300.164 11.52 300.62 12.576C301.076 13.632 301.304 15.048 301.304 16.824V27.84H303.248V29.856C302.768 29.976 302.084 30.096 301.196 30.216C300.308 30.336 299.528 30.396 298.856 30.396C298.04 30.396 297.488 30.276 297.2 30.036C296.936 29.796 296.804 29.304 296.804 28.56V27.588C296.156 28.308 295.316 28.956 294.284 29.532C293.252 30.108 292.088 30.396 290.792 30.396C289.688 30.396 288.668 30.168 287.732 29.712C286.82 29.232 286.088 28.548 285.536 27.66C284.984 26.748 284.708 25.656 284.708 24.384ZM293.096 27.408C293.6 27.408 294.176 27.264 294.824 26.976C295.472 26.664 296.036 26.292 296.516 25.86V19.956C294.356 19.956 292.736 20.328 291.656 21.072C290.6 21.792 290.072 22.728 290.072 23.88C290.072 25.032 290.336 25.908 290.864 26.508C291.416 27.108 292.16 27.408 293.096 27.408Z" fill="#E3E3E3"/>
</svg>
